<svg width="521" height="198" viewBox="0 0 521 198" fill="none" xmlns="http://www.w3.org/2000/svg">
<rect width="521" height="198" fill="white"/>
<path d="M71.816 23.408H95.0718L171.816 195.408H148.56L71.816 23.408Z" fill="#1E8DA9"/>
<rect x="113.157" y="61.668" width="35.1838" height="71.0492" transform="rotate(21.7956 113.157 61.668)" fill="white"/>
<path d="M135.68 23.408H158.816L90.9516 195.408H67.816L135.68 23.408Z" fill="#DF4A83"/>
<path d="M65.816 144.408L97.6969 148.973L124.316 166.295L119.803 177.823L90.8094 166.295L61.8159 154.766L65.816 144.408Z" fill="#DF4A83"/>
<path d="M147.253 143.501L167.316 143.501L171.816 152.891L154.9 160.501L147.253 143.501Z" fill="#1E8DA9"/>
<path d="M54.528 80.384C55.1253 79.9573 55.68 79.7013 56.192 79.616C56.7467 79.488 57.1733 79.424 57.472 79.424C58.1973 79.424 58.8587 79.5733 59.456 79.872C60.0533 80.1707 60.672 80.8107 61.312 81.792L68.48 92.608C68.6933 92.9493 68.8853 93.3333 69.056 93.76C69.2693 94.1867 69.376 94.528 69.376 94.784C69.376 95.7653 69.056 96.576 68.416 97.216C67.8187 97.8133 67.1573 98.3467 66.432 98.816C62.9333 101.248 59.0933 103.211 54.912 104.704C50.7733 106.155 46.3787 106.88 41.728 106.88C37.888 106.88 34.176 106.389 30.592 105.408C27.0507 104.427 23.744 103.04 20.672 101.248C17.6 99.4133 14.784 97.2373 12.224 94.72C9.664 92.16 7.488 89.3227 5.696 86.208C3.904 83.0933 2.496 79.744 1.472 76.16C0.490667 72.5333 0 68.7573 0 64.832C0 60.9067 0.490667 57.1307 1.472 53.504C2.496 49.8773 3.904 46.528 5.696 43.456C7.488 40.3413 9.664 37.5253 12.224 35.008C14.784 32.448 17.6 30.272 20.672 28.48C23.744 26.688 27.0507 25.3013 30.592 24.32C34.176 23.3387 37.888 22.848 41.728 22.848C46.3787 22.848 50.6667 23.4667 54.592 24.704C58.56 25.9413 62.272 27.776 65.728 30.208L65.536 30.016C66.4747 30.5707 67.2213 31.232 67.776 32C68.3307 32.7253 68.608 33.6427 68.608 34.752C68.608 35.52 68.352 36.3093 67.84 37.12L62.144 46.784C60.9493 48.8747 59.4987 49.92 57.792 49.92C57.408 49.92 56.9387 49.8347 56.384 49.664C55.8293 49.4507 55.2107 49.1093 54.528 48.64C52.6507 47.4027 50.624 46.4 48.448 45.632C46.3147 44.8213 44.032 44.416 41.6 44.416C38.912 44.416 36.4373 44.9707 34.176 46.08C31.9147 47.1467 29.9733 48.6187 28.352 50.496C26.7733 52.3733 25.536 54.5493 24.64 57.024C23.744 59.4987 23.296 62.1013 23.296 64.832C23.296 67.648 23.744 70.2933 24.64 72.768C25.536 75.2 26.7733 77.312 28.352 79.104C29.9733 80.896 31.9147 82.3253 34.176 83.392C36.4373 84.416 38.912 84.928 41.6 84.928C44.032 84.928 46.3147 84.5013 48.448 83.648C50.5813 82.7947 52.608 81.7067 54.528 80.384Z" fill="#3E3E3E"/>
<path d="M188.216 100.48C187.832 101.291 187.512 102.016 187.256 102.656C187 103.253 186.701 103.765 186.36 104.192C186.061 104.576 185.677 104.875 185.208 105.088C184.739 105.301 184.099 105.408 183.288 105.408H170.616C167.203 105.408 165.496 103.765 165.496 100.48V4.864C165.496 4.13867 165.624 3.47733 165.88 2.88C166.179 2.28267 166.541 1.77067 166.968 1.344C167.437 0.917336 167.949 0.597336 168.504 0.384003C169.101 0.128001 169.677 0 170.232 0H184.76C186.381 0 187.661 0.469332 188.6 1.408C189.539 2.34667 190.008 3.49867 190.008 4.864V31.488C191.203 30.208 192.483 29.0347 193.848 27.968C195.213 26.9013 196.685 26.0053 198.264 25.28C199.885 24.512 201.656 23.9147 203.576 23.488C205.496 23.0613 207.629 22.848 209.976 22.848C215.779 22.848 221.112 23.936 225.976 26.112C230.883 28.2453 235.085 31.2107 238.584 35.008C242.125 38.7627 244.877 43.2 246.84 48.32C248.845 53.3973 249.848 58.9013 249.848 64.832C249.848 70.72 248.845 76.224 246.84 81.344C244.877 86.464 242.125 90.9227 238.584 94.72C235.085 98.4747 230.883 101.44 225.976 103.616C221.112 105.792 215.779 106.88 209.976 106.88C207.8 106.88 205.709 106.603 203.704 106.048C201.741 105.493 199.885 104.768 198.136 103.872C196.387 102.976 194.765 101.973 193.272 100.864C191.821 99.712 190.52 98.56 189.368 97.408L188.216 100.48ZM226.808 64.832C226.808 62.1013 226.36 59.4987 225.464 57.024C224.611 54.5493 223.373 52.3733 221.752 50.496C220.131 48.6187 218.189 47.1467 215.928 46.08C213.667 44.9707 211.128 44.416 208.312 44.416C205.496 44.416 202.851 44.9707 200.376 46.08C197.944 47.1467 195.832 48.6187 194.04 50.496C192.248 52.3733 190.819 54.5493 189.752 57.024C188.728 59.4987 188.216 62.1013 188.216 64.832V65.728C188.344 68.416 188.941 70.9333 190.008 73.28C191.117 75.6267 192.568 77.6747 194.36 79.424C196.152 81.1307 198.243 82.4747 200.632 83.456C203.021 84.4373 205.581 84.928 208.312 84.928C211.128 84.928 213.667 84.416 215.928 83.392C218.189 82.3253 220.131 80.896 221.752 79.104C223.373 77.312 224.611 75.2 225.464 72.768C226.36 70.2933 226.808 67.648 226.808 64.832Z" fill="#3E3E3E"/>
<path d="M330.842 95.68C327.087 99.136 322.863 101.845 318.17 103.808C313.477 105.728 308.506 106.688 303.258 106.688C297.413 106.688 291.887 105.621 286.682 103.488C281.477 101.355 276.911 98.4107 272.986 94.656C269.061 90.8587 265.946 86.4 263.642 81.28C261.338 76.16 260.186 70.592 260.186 64.576C260.186 60.8213 260.634 57.1947 261.53 53.696C262.469 50.1547 263.77 46.848 265.434 43.776C267.141 40.704 269.189 37.888 271.578 35.328C274.01 32.7253 276.719 30.5067 279.706 28.672C282.693 26.8373 285.935 25.408 289.434 24.384C292.933 23.36 296.623 22.848 300.506 22.848C304.047 22.848 307.482 23.3173 310.81 24.256C314.138 25.1947 317.253 26.5173 320.154 28.224C323.098 29.9307 325.786 31.9787 328.218 34.368C330.65 36.7573 332.741 39.3813 334.49 42.24C336.239 45.056 337.583 48.0853 338.522 51.328C339.503 54.528 339.994 57.8347 339.994 61.248C339.994 63.4667 339.951 65.28 339.866 66.688C339.823 68.096 339.503 69.2267 338.906 70.08C338.309 70.8907 337.306 71.4667 335.898 71.808C334.533 72.1067 332.506 72.256 329.818 72.256H283.738C284.165 74.9867 285.018 77.2693 286.298 79.104C287.621 80.9387 289.135 82.4107 290.842 83.52C292.549 84.5867 294.362 85.3547 296.282 85.824C298.202 86.2933 300.015 86.528 301.722 86.528C303.258 86.528 304.837 86.3787 306.458 86.08C308.079 85.7387 309.637 85.312 311.13 84.8C312.666 84.2453 314.053 83.6267 315.29 82.944C316.57 82.2187 317.594 81.472 318.362 80.704C319.045 80.1493 319.621 79.744 320.09 79.488C320.602 79.1893 321.135 79.04 321.69 79.04C322.245 79.04 322.799 79.232 323.354 79.616C323.951 80 324.613 80.5547 325.338 81.28L332.122 88.96C332.591 89.5147 332.89 90.0267 333.018 90.496C333.146 90.9227 333.21 91.3707 333.21 91.84C333.21 92.6933 332.975 93.44 332.506 94.08C332.037 94.6773 331.482 95.2107 330.842 95.68ZM300.058 42.368C298.394 42.368 296.773 42.7093 295.194 43.392C293.658 44.032 292.207 44.9067 290.842 46.016C289.477 47.1253 288.239 48.384 287.13 49.792C286.063 51.2 285.189 52.6293 284.506 54.08H317.21C316.314 52.416 315.333 50.88 314.266 49.472C313.242 48.064 312.047 46.8267 310.682 45.76C309.359 44.6933 307.823 43.8613 306.074 43.264C304.367 42.6667 302.362 42.368 300.058 42.368Z" fill="#3E3E3E"/>
<path d="M353.371 28.864C353.371 28.0533 353.52 27.3493 353.819 26.752C354.118 26.1547 354.502 25.664 354.971 25.28C355.483 24.896 356.038 24.6187 356.635 24.448C357.275 24.2347 357.894 24.128 358.491 24.128H368.155C369.222 24.128 370.075 24.448 370.715 25.088C371.355 25.728 371.888 26.5387 372.315 27.52C372.784 28.5013 373.19 29.5893 373.531 30.784C373.872 31.9787 374.278 33.1307 374.747 34.24C376.027 32.832 377.286 31.4453 378.523 30.08C379.803 28.7147 381.168 27.4987 382.619 26.432C384.07 25.3653 385.648 24.512 387.355 23.872C389.104 23.1893 391.088 22.848 393.307 22.848C395.611 22.848 397.659 23.0187 399.451 23.36C401.286 23.7013 403.014 24.2133 404.635 24.896C406.256 25.536 407.856 26.368 409.435 27.392C411.056 28.416 412.806 29.6107 414.683 30.976C416.518 32.0427 417.435 33.3013 417.435 34.752C417.435 35.6907 417.072 36.7787 416.347 38.016L410.523 47.936C409.371 49.6 407.942 50.432 406.235 50.432C405.382 50.432 404.422 50.1973 403.355 49.728C401.52 47.936 399.643 46.6133 397.723 45.76C395.846 44.864 393.691 44.416 391.259 44.416C389.595 44.416 388.123 44.6507 386.843 45.12C385.606 45.5893 384.475 46.2507 383.451 47.104C382.427 47.9573 381.467 48.9813 380.571 50.176C379.675 51.3707 378.779 52.6933 377.883 54.144V100.48C377.883 102.101 377.478 103.339 376.667 104.192C375.899 105.003 374.598 105.408 372.763 105.408H358.363C355.035 105.408 353.371 103.765 353.371 100.48V28.864Z" fill="#3E3E3E"/>
<path d="M181.496 119.864C181.496 119.053 181.645 118.349 181.944 117.752C182.243 117.155 182.627 116.664 183.096 116.28C183.608 115.896 184.163 115.619 184.76 115.448C185.4 115.235 186.019 115.128 186.616 115.128H196.28C197.347 115.128 198.2 115.448 198.84 116.088C199.48 116.728 200.013 117.539 200.44 118.52C200.909 119.501 201.315 120.589 201.656 121.784C201.997 122.979 202.403 124.131 202.872 125.24C204.152 123.832 205.411 122.445 206.648 121.08C207.928 119.715 209.293 118.499 210.744 117.432C212.195 116.365 213.773 115.512 215.48 114.872C217.229 114.189 219.213 113.848 221.432 113.848C223.736 113.848 225.784 114.019 227.576 114.36C229.411 114.701 231.139 115.213 232.76 115.896C234.381 116.536 235.981 117.368 237.56 118.392C239.181 119.416 240.931 120.611 242.808 121.976C244.643 123.043 245.56 124.301 245.56 125.752C245.56 126.691 245.197 127.779 244.472 129.016L238.648 138.936C237.496 140.6 236.067 141.432 234.36 141.432C233.507 141.432 232.547 141.197 231.48 140.728C229.645 138.936 227.768 137.613 225.848 136.76C223.971 135.864 221.816 135.416 219.384 135.416C217.72 135.416 216.248 135.651 214.968 136.12C213.731 136.589 212.6 137.251 211.576 138.104C210.552 138.957 209.592 139.981 208.696 141.176C207.8 142.371 206.904 143.693 206.008 145.144V191.48C206.008 193.101 205.603 194.339 204.792 195.192C204.024 196.003 202.723 196.408 200.888 196.408H186.488C183.16 196.408 181.496 194.765 181.496 191.48V119.864Z" fill="#3E3E3E"/>
<path d="M321.342 186.68C317.587 190.136 313.363 192.845 308.67 194.808C303.977 196.728 299.006 197.688 293.758 197.688C287.913 197.688 282.387 196.621 277.182 194.488C271.977 192.355 267.411 189.411 263.486 185.656C259.561 181.859 256.446 177.4 254.142 172.28C251.838 167.16 250.686 161.592 250.686 155.576C250.686 151.821 251.134 148.195 252.03 144.696C252.969 141.155 254.27 137.848 255.934 134.776C257.641 131.704 259.689 128.888 262.078 126.328C264.51 123.725 267.219 121.507 270.206 119.672C273.193 117.837 276.435 116.408 279.934 115.384C283.433 114.36 287.123 113.848 291.006 113.848C294.547 113.848 297.982 114.317 301.31 115.256C304.638 116.195 307.753 117.517 310.654 119.224C313.598 120.931 316.286 122.979 318.718 125.368C321.15 127.757 323.241 130.381 324.99 133.24C326.739 136.056 328.083 139.085 329.022 142.328C330.003 145.528 330.494 148.835 330.494 152.248C330.494 154.467 330.451 156.28 330.366 157.688C330.323 159.096 330.003 160.227 329.406 161.08C328.809 161.891 327.806 162.467 326.398 162.808C325.033 163.107 323.006 163.256 320.318 163.256H274.238C274.665 165.987 275.518 168.269 276.798 170.104C278.121 171.939 279.635 173.411 281.342 174.52C283.049 175.587 284.862 176.355 286.782 176.824C288.702 177.293 290.515 177.528 292.222 177.528C293.758 177.528 295.337 177.379 296.958 177.08C298.579 176.739 300.137 176.312 301.63 175.8C303.166 175.245 304.553 174.627 305.79 173.944C307.07 173.219 308.094 172.472 308.862 171.704C309.545 171.149 310.121 170.744 310.59 170.488C311.102 170.189 311.635 170.04 312.19 170.04C312.745 170.04 313.299 170.232 313.854 170.616C314.451 171 315.113 171.555 315.838 172.28L322.622 179.96C323.091 180.515 323.39 181.027 323.518 181.496C323.646 181.923 323.71 182.371 323.71 182.84C323.71 183.693 323.475 184.44 323.006 185.08C322.537 185.677 321.982 186.211 321.342 186.68ZM290.558 133.368C288.894 133.368 287.273 133.709 285.694 134.392C284.158 135.032 282.707 135.907 281.342 137.016C279.977 138.125 278.739 139.384 277.63 140.792C276.563 142.2 275.689 143.629 275.006 145.08H307.71C306.814 143.416 305.833 141.88 304.766 140.472C303.742 139.064 302.547 137.827 301.182 136.76C299.859 135.693 298.323 134.861 296.574 134.264C294.867 133.667 292.862 133.368 290.558 133.368Z" fill="#3E3E3E"/>
<path d="M345.535 116.216C346.09 115.747 346.666 115.448 347.263 115.32C347.903 115.192 348.5 115.128 349.055 115.128H358.719C359.487 115.128 360.148 115.277 360.703 115.576C361.258 115.832 361.727 116.195 362.111 116.664C362.495 117.133 362.794 117.667 363.007 118.264C363.263 118.861 363.498 119.48 363.711 120.12L365.055 125.752C365.695 124.429 366.719 123.064 368.127 121.656C369.578 120.248 371.348 118.968 373.439 117.816C375.572 116.664 378.026 115.725 380.799 115C383.572 114.232 386.666 113.848 390.079 113.848C394.943 113.848 399.274 114.787 403.071 116.664C406.911 118.541 410.154 121.101 412.799 124.344C415.487 127.587 417.514 131.384 418.879 135.736C420.287 140.045 420.991 144.653 420.991 149.56V191.48C420.991 193.101 420.628 194.339 419.903 195.192C419.22 196.003 418.111 196.408 416.575 196.408H401.791C399.956 196.408 398.698 196.109 398.015 195.512C397.332 194.872 396.991 193.656 396.991 191.864V150.2C396.991 148.365 396.564 146.637 395.711 145.016C394.9 143.352 393.812 141.901 392.447 140.664C391.082 139.384 389.524 138.381 387.775 137.656C386.068 136.931 384.319 136.568 382.527 136.568C380.991 136.568 379.412 136.909 377.791 137.592C376.212 138.275 374.74 139.235 373.375 140.472C372.052 141.667 370.922 143.096 369.983 144.76C369.087 146.381 368.575 148.152 368.447 150.072V191.672C368.447 192.397 368.298 193.123 367.999 193.848C367.743 194.573 367.338 195.128 366.783 195.512C366.228 195.853 365.695 196.088 365.183 196.216C364.714 196.344 364.159 196.408 363.519 196.408H349.055C347.22 196.408 345.898 195.96 345.087 195.064C344.276 194.168 343.871 192.973 343.871 191.48V119.864C343.871 119.053 344.042 118.307 344.383 117.624C344.767 116.941 345.279 116.408 345.919 116.024L345.535 116.216Z" fill="#3E3E3E"/>
<path d="M520.019 191.672C520.019 192.397 519.891 193.101 519.635 193.784C519.379 194.424 518.952 194.936 518.355 195.32C517.886 195.789 517.331 196.088 516.691 196.216C516.051 196.344 515.496 196.408 515.027 196.408H502.419C501.523 196.408 500.798 196.301 500.243 196.088C499.688 195.832 499.24 195.491 498.899 195.064C498.558 194.637 498.259 194.125 498.003 193.528C497.79 192.888 497.555 192.205 497.299 191.48L496.467 188.6C495.315 189.752 493.992 190.883 492.499 191.992C491.048 193.101 489.427 194.104 487.635 195C485.886 195.853 483.987 196.536 481.939 197.048C479.934 197.603 477.843 197.88 475.667 197.88C471.784 197.88 468.051 197.389 464.467 196.408C460.926 195.427 457.598 194.04 454.483 192.248C451.411 190.413 448.616 188.237 446.099 185.72C443.582 183.16 441.406 180.323 439.571 177.208C437.779 174.093 436.392 170.744 435.411 167.16C434.43 163.533 433.939 159.757 433.939 155.832C433.939 149.901 435.027 144.397 437.203 139.32C439.379 134.2 442.344 129.763 446.099 126.008C449.854 122.211 454.27 119.245 459.347 117.112C464.424 114.936 469.864 113.848 475.667 113.848C478.312 113.848 480.766 114.147 483.027 114.744C485.331 115.341 487.422 116.152 489.299 117.176C491.219 118.2 492.947 119.437 494.483 120.888C496.019 122.296 497.363 123.832 498.515 125.496L500.371 119.672C500.798 118.605 501.139 117.752 501.395 117.112C501.694 116.429 501.992 115.939 502.291 115.64C502.632 115.299 503.038 115.085 503.507 115C503.976 114.872 504.638 114.808 505.491 114.808H515.027C515.496 114.808 516.051 114.872 516.691 115C517.331 115.128 517.886 115.427 518.355 115.896C518.952 116.365 519.379 116.899 519.635 117.496C519.891 118.093 520.019 118.776 520.019 119.544V191.672ZM456.979 155.832C456.979 158.648 457.406 161.293 458.259 163.768C459.155 166.2 460.414 168.312 462.035 170.104C463.656 171.896 465.598 173.325 467.859 174.392C470.163 175.416 472.702 175.928 475.475 175.928C478.334 175.928 480.979 175.416 483.411 174.392C485.886 173.325 488.019 171.896 489.811 170.104C491.646 168.312 493.075 166.2 494.099 163.768C495.123 161.293 495.635 158.648 495.635 155.832C495.635 153.101 495.123 150.499 494.099 148.024C493.075 145.549 491.646 143.373 489.811 141.496C488.019 139.619 485.886 138.147 483.411 137.08C480.979 135.971 478.334 135.416 475.475 135.416C472.702 135.416 470.163 135.971 467.859 137.08C465.598 138.147 463.656 139.619 462.035 141.496C460.414 143.373 459.155 145.549 458.259 148.024C457.406 150.499 456.979 153.101 456.979 155.832Z" fill="#3E3E3E"/>
</svg>
